PathFileType	4	(X/Y/Z)	s01c0103.trc
DataRate	CameraRate	NumFrames	NumMarkers	Units	OrigDataRate	OrigDataStartFrame	OrigNumFrames
200	200	4	48	mm	200	1000	2000
Frame#	Time	racr			lacr			c7			jug			rlel			rdr			llel			ldr			s2			lic			ric			lasi			rasi			rpsi			lpsi			rgt			lgt			rth1			rth2			rth3			rth4			rlfc			rsh1			rsh2			rsh3			rsh4			rlmal			rmmal			rcal			rtoe			rmt5			lth1			lth2			lth4			lth3			llfc			lsh1			lsh2			lsh3			lsh4			llmal			lmmal			lcal			ltoe			lmt5			SBIKE			LBIKE			RBIKE			
		X1	Y1	Z1	X2	Y2	Z2	X3	Y3	Z3	X4	Y4	Z4	X5	Y5	Z5	X6	Y6	Z6	X7	Y7	Z7	X8	Y8	Z8	X9	Y9	Z9	X10	Y10	Z10	X11	Y11	Z11	X12	Y12	Z12	X13	Y13	Z13	X14	Y14	Z14	X15	Y15	Z15	X16	Y16	Z16	X17	Y17	Z17	X18	Y18	Z18	X19	Y19	Z19	X20	Y20	Z20	X21	Y21	Z21	X22	Y22	Z22	X23	Y23	Z23	X24	Y24	Z24	X25	Y25	Z25	X26	Y26	Z26	X27	Y27	Z27	X28	Y28	Z28	X29	Y29	Z29	X30	Y30	Z30	X31	Y31	Z31	X32	Y32	Z32	X33	Y33	Z33	X34	Y34	Z34	X35	Y35	Z35	X36	Y36	Z36	X37	Y37	Z37	X38	Y38	Z38	X39	Y39	Z39	X40	Y40	Z40	X41	Y41	Z41	X42	Y42	Z42	X43	Y43	Z43	X44	Y44	Z44	X45	Y45	Z45	X46	Y46	Z46	X47	Y47	Z47	X48	Y48	Z48	
1000	5.0000	501.514181	1325.304123	-122.815094	503.715588	1288.900687	-429.384114	459.734023	1386.309253	-273.340283	451.607226	1221.359741	-265.634009	572.801245	1063.161124	-19.571819	735.510732	857.697779	-82.585280	516.616375	1022.114474	-548.935712	705.577867	872.246193	-453.702906	0.000000	0.000000	-0.000000	82.700433	1182.920554	-422.448339	104.813405	1159.301660	-89.605234	92.117992	1129.646248	-395.043011	127.886417	1116.123099	-121.456566	-33.404875	1196.931212	-174.824268	-47.528499	1203.807256	-281.205453	53.648947	1037.153077	-60.892843	41.514806	1068.264670	-444.573126	119.916693	925.895643	-46.901586	170.264749	859.305222	-51.931083	218.846437	784.221056	-67.858068	215.694518	890.643143	-65.799635	260.171183	676.653149	-88.765601	236.760746	561.675580	-55.687460	234.804620	477.031081	-61.554827	224.372328	389.323384	-72.971693	283.239377	476.118061	-98.727845	201.175008	268.707842	-97.482308	238.672638	284.918350	-170.315995	156.315300	254.813490	-146.634217	416.979718	177.237829	-146.303355	311.999391	167.078096	-71.917715	141.039438	1000.894487	-457.784879	228.874736	990.943307	-469.919528	238.354226	1043.041199	-455.756006	312.274596	970.388041	-465.562248	411.284881	896.087041	-453.992836	315.323388	838.388995	-472.665422	257.749611	775.496649	-458.178462	199.330442	715.108583	-438.558099	302.603115	740.418123	-433.372649	116.766878	626.514463	-414.453038	150.436402	619.742123	-334.387965	60.207796	618.408718	-367.279287	270.345720	441.232333	-384.292548	171.656645	488.920361	-445.097374	-229.680235	891.094587	-254.504839	-23.311449	81.076979	-457.683282	-23.543493	80.031737	-57.344159	
1001	5.0050	502.428849	1324.676095	-123.099151	502.965645	1289.874782	-429.075338	460.096441	1386.483910	-272.470808	451.953176	1221.265903	-265.331556	575.923763	1063.618283	-20.667539	736.474154	857.050236	-82.400574	514.936793	1023.248689	-547.845760	704.797149	873.845715	-453.842584	0.000000	0.000000	-0.000000	82.113246	1184.866548	-420.896381	105.370590	1158.973075	-88.717836	92.000136	1130.822132	-394.309999	128.086436	1115.270979	-120.168018	-33.125279	1196.759550	-172.622397	-47.549898	1204.348388	-278.751919	53.135032	1036.590690	-59.909524	41.109409	1070.713953	-443.619826	118.035999	925.351517	-45.412698	167.629775	857.986785	-49.740304	215.463776	782.243802	-65.312525	213.556139	888.861350	-63.550353	255.195342	674.245952	-86.457961	230.914920	559.759073	-53.632244	228.675729	475.117978	-59.557061	218.156544	387.465515	-71.095683	277.571996	473.979549	-96.117205	195.063622	267.198680	-96.037891	231.791412	282.398100	-169.015928	150.145604	254.894022	-145.102384	408.412874	169.769782	-146.511883	303.610331	162.546019	-71.508463	141.179043	1004.553761	-456.984221	229.197033	995.815329	-468.678665	237.732432	1047.764516	-454.056635	312.855907	976.527883	-464.601993	413.543252	904.862685	-453.786254	318.716507	846.342284	-472.056967	261.928993	782.619414	-457.603055	204.331908	721.380472	-437.856627	307.361887	747.857585	-433.452746	123.225033	630.648951	-414.076458	157.258792	624.417254	-334.354697	66.465738	620.909945	-367.141572	280.211443	448.350445	-384.213800	180.594444	494.117918	-445.052022	-229.627644	891.194261	-254.186811	-23.282219	81.197419	-457.631661	-23.535599	80.098969	-57.309678	
1002	5.0100	503.259168	1324.257356	-123.177719	502.130327	1290.799066	-428.792106	460.423529	1386.639383	-271.740350	452.249791	1221.171587	-265.052934	578.615738	1063.794929	-21.575873	737.006653	856.528221	-82.174407	513.481304	1024.368213	-546.785195	704.076716	875.163903	-453.928559	0.000000	0.000000	-0.000000	81.709729	1186.633828	-419.643593	105.686037	1158.921283	-87.911625	91.497026	1132.125018	-393.422495	128.135846	1114.748153	-118.859874	-33.006822	1196.721138	-170.737203	-47.688389	1205.068350	-276.597611	52.437195	1036.161758	-59.172173	40.749833	1073.163183	-442.846212	116.308283	924.973181	-44.090005	165.195320	857.103375	-47.664818	212.354707	780.773035	-62.459969	211.318009	887.450563	-61.602783	250.756808	672.481066	-84.308361	225.635936	558.429161	-51.796482	222.910184	473.874213	-57.675088	212.051459	386.138797	-69.410504	272.233611	472.421194	-93.582716	188.853639	266.375137	-94.106538	225.058340	280.579484	-167.740283	144.058850	255.850506	-143.560511	399.478920	162.776926	-146.642395	294.972188	158.583242	-71.009444	141.348829	1008.082001	-456.145312	229.525771	1000.587174	-467.352471	237.328004	1052.555956	-452.667851	313.477293	982.380772	-463.382761	415.457227	913.174579	-453.144285	321.841979	853.737296	-471.185706	266.024181	789.267840	-456.925239	209.452374	727.023432	-437.219631	312.093007	754.897376	-433.403301	130.030939	633.811199	-413.732169	162.807170	627.758185	-334.181448	72.688967	622.483995	-367.071591	290.452241	454.901903	-384.231942	190.053742	498.655790	-444.771731	-229.575005	891.212093	-254.017612	-23.274211	81.271438	-457.570236	-23.485231	80.091296	-57.248007	
1003	5.0150	503.879287	1323.972011	-122.972828	501.237925	1291.650571	-428.573775	460.698677	1386.756295	-271.158099	452.497009	1221.083255	-264.786527	580.736282	1063.756834	-22.137433	737.357240	856.228497	-82.072784	511.330165	1025.325013	-545.974094	703.492180	876.367000	-453.968864	0.000000	0.000000	-0.000000	81.148768	1188.515286	-418.411542	105.875475	1159.055763	-87.230660	91.019379	1133.626273	-392.646572	128.120774	1114.482558	-117.660811	-32.979640	1196.781071	-169.280041	-47.928436	1205.978679	-274.761228	51.656720	1035.912285	-58.707319	40.492362	1075.543274	-442.364038	114.694811	924.829745	-42.931860	163.167325	856.546814	-45.719523	209.721113	779.791698	-59.415490	209.487747	886.500882	-59.544608	246.953967	671.354843	-82.358946	220.823374	557.775201	-50.123884	217.648813	473.199206	-55.988968	206.173912	385.670693	-67.703253	266.921843	471.267196	-91.400106	182.716490	266.286293	-92.503370	218.559249	279.493499	-166.499396	138.134378	257.629958	-141.881563	390.307139	156.250800	-146.882560	286.187213	155.203888	-70.623842	141.579445	1011.448570	-455.230501	229.803694	1005.016381	-465.993801	236.852511	1057.222273	-451.316600	313.954829	988.014694	-462.030055	416.468191	921.026870	-452.471972	324.742857	860.664460	-470.203725	270.040078	795.178685	-456.157295	214.623298	731.802133	-436.483182	316.703470	761.497600	-433.141253	136.699447	635.965669	-413.191298	171.752465	630.929705	-334.167825	78.832896	623.091938	-367.086911	300.783195	460.866519	-384.239660	199.405888	502.393655	-444.876519	-229.553342	891.198062	-253.973380	-23.262408	81.261307	-457.538267	-23.472844	80.080558	-57.231157	
